<svg version="1.1" width="632" height="128" xmlns="http://www.w3.org/2000/svg">
   <circle fill="#b5010f" cx="64" cy="64" r="64" />
   <g>
      <path id="discord--body" fill="#ffffff" d="m 54.287654,40.641227 c -4.418012,0.760916 -8.658417,2.050704 -12.650464,3.780812 l 0.04739,0.176259 c 1.373915,5.127515 -1.422837,11.919596 -7.534822,14.36152 l -0.774099,0.309226 -0.0938,-0.105137 c -2.856193,8.181261 -3.562044,16.257695 -2.813962,24.269144 0.0053,0.06165 0.03969,0.120219 0.08761,0.157705 5.777942,4.24319 11.375321,6.81897 16.868317,8.526411 0.08791,0.02681 0.181128,-0.0048 0.237075,-0.0773 1.299371,-1.774422 2.457859,-3.645939 3.450968,-5.613496 0.05861,-0.115218 0.0021,-0.251287 -0.117503,-0.296858 -1.837213,-0.696926 -3.58643,-1.547011 -5.269225,-2.511952 -0.133109,-0.07773 -0.144086,-0.267556 -0.02164,-0.358703 0.354123,-0.265354 0.708073,-0.541713 1.046216,-0.820482 0.06118,-0.0509 0.146592,-0.06205 0.218519,-0.02989 11.055248,5.047441 23.024168,5.047441 33.948973,0 0.07193,-0.03482 0.156741,-0.0241 0.220582,0.0268 0.338233,0.278769 0.692526,0.558219 1.049309,0.823574 0.122453,0.09115 0.114532,0.28097 -0.01858,0.358702 -1.682795,0.983685 -3.432439,1.814599 -5.272313,2.508861 -0.119788,0.0456 -0.173027,0.184732 -0.114415,0.29995 1.014414,1.964797 2.17248,3.835886 3.447876,5.610404 0.05328,0.07507 0.149162,0.107227 0.237074,0.0804 5.519632,-1.707441 11.117169,-4.283221 16.895116,-8.526411 0.05061,-0.03749 0.08229,-0.09399 0.08762,-0.155644 0.841656,-8.707128 -0.177798,-16.725988 -2.752121,-24.16813 l -0.07318,0.08246 -0.774094,-0.309227 C 87.738138,56.598293 84.94138,49.806211 86.315296,44.678697 l 0.05669,-0.213366 c -4.01807,-1.749236 -8.291126,-3.054571 -12.747352,-3.824104 -0.08791,-0.01609 -0.17632,0.02369 -0.221612,0.104106 -0.593784,1.056099 -1.251504,2.43402 -1.712085,3.516939 -5.192159,-0.77732 -10.357096,-0.777321 -15.442782,0 -0.460681,-1.10699 -1.142435,-2.46084 -1.73889,-3.516939 -0.04528,-0.07773 -0.133699,-0.117512 -0.221611,-0.104106 z m -14.737745,5.745432 c -2.075697,3.263981 -3.762835,6.508395 -5.100178,9.735488 3.614016,-2.101476 5.416694,-6.378813 5.100178,-9.735488 z m 48.896993,0.110291 c -0.302742,3.349904 1.497598,7.604779 5.096051,9.701473 -1.382448,-3.351404 -3.093531,-6.580497 -5.096051,-9.701473 z M 52.762138,62.141761 c 3.408121,0 6.124424,3.082242 6.071148,6.808141 0,3.75273 -2.689668,6.808142 -6.071148,6.808142 -3.328389,0 -6.071153,-3.055412 -6.071153,-6.808142 0,-3.75273 2.689578,-6.808141 6.071153,-6.808141 z m 22.446766,0 c 3.408216,0 6.123305,3.082242 6.070119,6.808141 0,3.75273 -2.661903,6.808142 -6.070119,6.808142 -3.328294,0 -6.071153,-3.055412 -6.071153,-6.808142 0,-3.75273 2.689577,-6.808141 6.071153,-6.808141 z" />
      <path id="horn--left" fill="#ffffff" d="m 40.538094,44.905869 c -8.239597,-0.576825 -13.967804,-4.713705 -19.567589,-9.03263 2.874621,7.637738 6.626475,15.107832 12.738438,21.984183 5.502158,-2.198279 8.022424,-8.498206 6.829151,-12.951553 z" />
      <path id="horn--right" fill="#ffffff" d="m 87.461916,44.986264 c 8.239596,-0.576826 13.967804,-4.713706 19.567594,-9.03263 -2.87463,7.637738 -6.62648,15.107832 -12.738444,21.984183 -5.502157,-2.198279 -8.022423,-8.498206 -6.82915,-12.951553 z" />
   </g>
   <g fill="#ffffff" transform="matrix(1.0477742,0,0,1.1372484,-5.5809004,-8.7838959)">
      <path id="letter-1" d="m 150.8126,41.602445 h 15.14024 q 5.31786,0 9.57214,1.626638 4.25428,1.626638 7.25731,4.629662 3.00302,2.940461 4.5671,7.069619 1.62664,4.129158 1.62664,9.071635 0,5.00504 -1.62664,9.134198 -1.56408,4.129158 -4.5671,7.069619 -3.00303,2.940461 -7.25731,4.567098 -4.25428,1.626638 -9.57214,1.626638 H 150.8126 Z m 14.76486,36.787044 q 3.69122,0 6.50656,-1.001008 2.81533,-1.063571 4.69222,-2.940461 1.87689,-1.87689 2.81534,-4.504536 0.93844,-2.690209 0.93844,-5.943485 0,-3.253276 -0.93844,-5.880922 -0.93845,-2.690209 -2.81534,-4.567099 -1.87689,-1.87689 -4.69222,-2.877898 -2.81534,-1.063571 -6.50656,-1.063571 h -6.31886 v 28.77898 z" />
      <path id="letter-2" d="m 199.36147,51.29971 q -1.06357,0 -2.06457,-0.375378 -0.93845,-0.437941 -1.68921,-1.126134 -0.68819,-0.750756 -1.12613,-1.689201 -0.37538,-0.938445 -0.37538,-2.064579 0,-1.126134 0.37538,-2.064579 0.43794,-0.938445 1.12613,-1.626638 0.75076,-0.750756 1.68921,-1.126134 1.001,-0.437941 2.06457,-0.437941 2.18971,0 3.75378,1.564075 1.56408,1.501512 1.56408,3.691217 0,2.189705 -1.56408,3.75378 -1.56407,1.501512 -3.75378,1.501512 z m -4.06659,35.097842 V 55.741683 h 8.19575 v 30.655869 z" />
      <path id="letter-3" d="m 223.13546,87.39856 q -3.00302,0 -5.38042,-0.750756 -2.31483,-0.750756 -4.06659,-1.939453 -1.6892,-1.251259 -2.8779,-2.815334 -1.1887,-1.626638 -1.81433,-3.253276 l 7.31988,-3.12815 q 1.06357,2.377394 2.81533,3.566091 1.81433,1.126134 4.00403,1.126134 2.25227,0 3.56609,-0.813319 1.31383,-0.813319 1.31383,-1.939453 0,-1.25126 -1.12614,-2.002016 -1.06357,-0.813319 -3.75378,-1.438949 l -4.31684,-0.938445 q -1.43895,-0.312815 -3.00303,-1.001008 -1.50151,-0.688193 -2.75277,-1.751764 -1.25126,-1.063571 -2.06458,-2.565083 -0.81332,-1.501512 -0.81332,-3.503528 0,-2.252268 0.93845,-4.004032 1.001,-1.751764 2.69021,-2.940461 1.6892,-1.25126 3.94146,-1.87689 2.31484,-0.688193 4.94248,-0.688193 4.37941,0 7.82038,1.751764 3.44096,1.689201 5.0676,5.442981 l -7.06962,2.877898 q -0.87588,-1.814327 -2.56508,-2.627646 -1.6892,-0.813319 -3.3784,-0.813319 -1.75177,0 -3.06559,0.750756 -1.31382,0.688193 -1.31382,1.814327 0,1.063571 1.06357,1.689201 1.12613,0.62563 3.00302,1.126134 l 4.69223,1.126134 q 4.69222,1.126134 6.94449,3.628654 2.31483,2.439957 2.31483,5.818359 0,2.002016 -0.93845,3.816343 -0.93844,1.814327 -2.6902,3.253275 -1.68921,1.376386 -4.12916,2.189705 -2.3774,0.813319 -5.31786,0.813319 z" />
      <path id="letter-4" d="m 270.62071,78.577178 q -2.00201,3.878906 -5.63067,6.381425 -3.56609,2.439957 -8.94651,2.439957 -3.56609,0 -6.56911,-1.188697 -2.94046,-1.25126 -5.13017,-3.440964 -2.12714,-2.189705 -3.3784,-5.130166 -1.1887,-3.003024 -1.1887,-6.569115 0,-3.566091 1.1887,-6.569115 1.25126,-3.003024 3.3784,-5.130166 2.18971,-2.189705 5.13017,-3.378402 3.00302,-1.25126 6.56911,-1.25126 5.31786,0 8.94651,2.439957 3.62866,2.439957 5.31786,6.318863 l -7.50756,3.12815 q -1.06357,-2.127142 -2.75277,-3.190713 -1.62664,-1.126134 -4.12916,-1.126134 -1.62664,0 -3.06559,0.62563 -1.43895,0.62563 -2.56508,1.751764 -1.06357,1.126134 -1.6892,2.752772 -0.62563,1.626638 -0.62563,3.628654 0,2.002016 0.62563,3.628654 0.62563,1.626638 1.6892,2.752772 1.12613,1.126134 2.56508,1.751764 1.43895,0.62563 3.06559,0.62563 2.56508,0 4.31685,-1.126134 1.81432,-1.188697 2.87789,-3.378402 z" />
      <path id="letter-5" d="m 289.82762,54.740675 q 3.56609,0 6.50655,1.25126 3.00302,1.188697 5.13016,3.378402 2.18971,2.127142 3.3784,5.130166 1.25126,3.003024 1.25126,6.569115 0,3.566091 -1.25126,6.569115 -1.18869,3.003024 -3.3784,5.192729 -2.12714,2.127141 -5.13016,3.378401 -2.94046,1.188697 -6.50655,1.188697 -3.5661,0 -6.56912,-1.188697 -2.94046,-1.25126 -5.13017,-3.378401 -2.12714,-2.189705 -3.3784,-5.192729 -1.18869,-3.003024 -1.18869,-6.569115 0,-3.566091 1.18869,-6.569115 1.25126,-3.003024 3.3784,-5.130166 2.18971,-2.189705 5.13017,-3.378402 3.00302,-1.25126 6.56912,-1.25126 z m 0,25.087763 q 1.56407,0 3.00302,-0.563067 1.50151,-0.62563 2.62765,-1.751764 1.12613,-1.126134 1.75176,-2.752772 0.68819,-1.626638 0.68819,-3.691217 0,-2.064579 -0.68819,-3.691217 -0.62563,-1.626638 -1.75176,-2.752772 -1.12614,-1.126134 -2.62765,-1.689201 -1.43895,-0.62563 -3.00302,-0.62563 -1.62664,0 -3.06559,0.62563 -1.43895,0.563067 -2.56508,1.689201 -1.12614,1.126134 -1.81433,2.752772 -0.62563,1.626638 -0.62563,3.691217 0,2.064579 0.62563,3.691217 0.68819,1.626638 1.81433,2.752772 1.12613,1.126134 2.56508,1.751764 1.43895,0.563067 3.06559,0.563067 z" />
      <path id="letter-6" d="m 310.72365,55.741683 h 7.69525 v 4.254284 h 0.5005 q 0.56307,-1.126134 1.50152,-2.064579 0.93844,-0.938445 2.06458,-1.626638 1.18869,-0.688193 2.50252,-1.063571 1.37638,-0.375378 2.6902,-0.375378 1.62664,0 2.75278,0.312815 1.18869,0.312815 2.00201,0.813319 l -2.1897,7.444997 q -0.75076,-0.375378 -1.6892,-0.563067 -0.87589,-0.250252 -2.18971,-0.250252 -1.6892,0 -3.06559,0.688193 -1.37638,0.62563 -2.37739,1.814327 -0.93844,1.188697 -1.50151,2.815335 -0.50051,1.564075 -0.50051,3.440965 v 15.015119 h -8.19575 z" />
      <path id="letter-7" d="m 357.14533,82.706336 h -0.50051 q -1.12613,1.939452 -3.50352,3.315838 -2.3774,1.376386 -5.88093,1.376386 -2.94046,0 -5.63067,-1.188697 -2.62764,-1.25126 -4.69222,-3.378401 -2.00202,-2.189705 -3.19071,-5.192729 -1.1887,-3.003024 -1.1887,-6.569115 0,-3.566091 1.1887,-6.569115 1.18869,-3.003024 3.19071,-5.130166 2.06458,-2.189705 4.69222,-3.378402 2.69021,-1.25126 5.63067,-1.25126 3.50353,0 5.88093,1.376386 2.37739,1.376386 3.50352,3.315839 h 0.50051 l -0.50051,-4.37941 V 41.602445 h 8.19576 v 44.795107 h -7.69525 z m -8.19576,-2.877898 q 1.62664,0 3.06559,-0.563067 1.50151,-0.62563 2.62765,-1.751764 1.12613,-1.126134 1.81432,-2.752772 0.6882,-1.626638 0.6882,-3.691217 0,-2.064579 -0.6882,-3.691217 -0.68819,-1.626638 -1.81432,-2.752772 -1.12614,-1.126134 -2.62765,-1.689201 -1.43895,-0.62563 -3.06559,-0.62563 -1.62663,0 -3.12815,0.62563 -1.43894,0.62563 -2.56508,1.751764 -1.12613,1.126134 -1.81433,2.752772 -0.68819,1.626638 -0.68819,3.628654 0,2.002016 0.68819,3.628654 0.6882,1.626638 1.81433,2.752772 1.12614,1.126134 2.56508,1.751764 1.50152,0.62563 3.12815,0.62563 z" />
      <path id="space-1" d="M 368.34413,86.397552 Z" />
      <path id="letter-8" d="m 400.12608,54.740675 q 3.5661,0 6.50656,1.25126 3.00302,1.188697 5.13016,3.378402 2.18971,2.127142 3.3784,5.130166 1.25126,3.003024 1.25126,6.569115 0,3.566091 -1.25126,6.569115 -1.18869,3.003024 -3.3784,5.192729 -2.12714,2.127141 -5.13016,3.378401 -2.94046,1.188697 -6.50656,1.188697 -3.56609,0 -6.56911,-1.188697 -2.94046,-1.25126 -5.13017,-3.378401 -2.12714,-2.189705 -3.3784,-5.192729 -1.1887,-3.003024 -1.1887,-6.569115 0,-3.566091 1.1887,-6.569115 1.25126,-3.003024 3.3784,-5.130166 2.18971,-2.189705 5.13017,-3.378402 3.00302,-1.25126 6.56911,-1.25126 z m 0,25.087763 q 1.56408,0 3.00303,-0.563067 1.50151,-0.62563 2.62764,-1.751764 1.12614,-1.126134 1.75177,-2.752772 0.68819,-1.626638 0.68819,-3.691217 0,-2.064579 -0.68819,-3.691217 -0.62563,-1.626638 -1.75177,-2.752772 -1.12613,-1.126134 -2.62764,-1.689201 -1.43895,-0.62563 -3.00303,-0.62563 -1.62663,0 -3.06558,0.62563 -1.43895,0.563067 -2.56509,1.689201 -1.12613,1.126134 -1.81432,2.752772 -0.62563,1.626638 -0.62563,3.691217 0,2.064579 0.62563,3.691217 0.68819,1.626638 1.81432,2.752772 1.12614,1.126134 2.56509,1.751764 1.43895,0.563067 3.06558,0.563067 z" />
      <path id="letter-9" d="m 428.71738,59.745715 h 0.5005 q 1.43895,-2.314831 3.87891,-3.628654 2.43995,-1.376386 5.5681,-1.376386 2.8779,0 5.06761,0.938445 2.1897,0.938445 3.56609,2.690209 1.43895,1.689201 2.12714,4.129158 0.75076,2.377394 0.75076,5.317855 v 18.58121 h -8.19576 V 68.81735 q 0,-3.315839 -1.50151,-4.879914 -1.43895,-1.626638 -4.25428,-1.626638 -1.6892,0 -3.00303,0.750756 -1.25126,0.688193 -2.1897,1.939453 -0.87588,1.188697 -1.37639,2.877898 -0.43794,1.626638 -0.43794,3.503528 v 15.015119 h -8.19575 V 55.741683 h 7.69525 z" />
      <path id="space-2" d="M 453.42973,86.397552 Z" />
      <path id="letter-B" d="m 471.69809,41.602445 h 17.51764 q 2.8779,0 5.38042,0.938445 2.50252,0.875882 4.31685,2.50252 1.87689,1.564075 2.94046,3.691217 1.06357,2.127142 1.06357,4.567099 0,3.566091 -1.75176,6.006048 -1.6892,2.377394 -4.25429,3.628654 v 0.500504 q 3.44097,1.25126 5.50555,3.941469 2.12714,2.627646 2.12714,6.569115 0,2.877898 -1.1887,5.192729 -1.12613,2.252268 -3.12815,3.878906 -2.00201,1.626637 -4.69222,2.502519 -2.62765,0.875882 -5.69324,0.875882 h -18.14327 z m 16.89201,18.268396 q 2.94046,0 4.50454,-1.564075 1.62664,-1.626638 1.62664,-3.816343 0,-2.189705 -1.56408,-3.75378 -1.56407,-1.564075 -4.31684,-1.564075 h -8.69626 v 10.698273 z m 0.93845,18.7689 q 3.19071,0 4.87991,-1.564075 1.6892,-1.626638 1.6892,-4.129158 0,-2.50252 -1.75176,-4.129158 -1.6892,-1.689201 -5.0676,-1.689201 h -9.1342 v 11.511592 z" />
      <path id="letter-S" d="m 524.75147,87.39856 q -2.8779,0 -5.50554,-0.813319 -2.62765,-0.813319 -4.81735,-2.439956 -2.18971,-1.626638 -3.81635,-3.941469 -1.62663,-2.377394 -2.56508,-5.505544 l 7.9455,-3.12815 q 0.87588,3.378402 3.06559,5.63067 2.1897,2.189705 5.75579,2.189705 1.31383,0 2.50252,-0.312815 1.25126,-0.375378 2.18971,-1.001008 1.00101,-0.688193 1.56407,-1.689201 0.56307,-1.001008 0.56307,-2.314831 0,-1.25126 -0.43794,-2.252268 -0.43794,-1.001008 -1.50151,-1.87689 -1.00101,-0.875882 -2.69021,-1.689201 -1.62664,-0.813319 -4.0666,-1.689201 l -2.75277,-1.001008 q -1.81432,-0.62563 -3.69121,-1.689201 -1.81433,-1.063571 -3.31584,-2.565083 -1.50151,-1.501512 -2.50252,-3.503528 -0.93845,-2.064579 -0.93845,-4.629662 0,-2.627646 1.00101,-4.879914 1.06357,-2.314831 2.94046,-4.004032 1.93945,-1.751764 4.5671,-2.690209 2.69021,-1.001008 5.94348,-1.001008 3.37841,0 5.81836,0.938445 2.50252,0.875882 4.19172,2.314831 1.75177,1.376386 2.81534,3.065587 1.06357,1.689201 1.56407,3.190713 l -7.44499,3.12815 q -0.62563,-1.87689 -2.31483,-3.378402 -1.62664,-1.501512 -4.50454,-1.501512 -2.75277,0 -4.5671,1.313823 -1.81433,1.25126 -1.81433,3.315839 0,2.002016 1.75177,3.440965 1.75176,1.376386 5.56811,2.690209 l 2.81533,0.938445 q 2.69021,0.938445 4.87991,2.189705 2.25227,1.188697 3.81635,2.877898 1.62664,1.689201 2.43995,3.878906 0.87589,2.127142 0.87589,4.942477 0,3.503528 -1.43895,6.068611 -1.37639,2.50252 -3.56609,4.129158 -2.18971,1.626637 -4.94248,2.439956 -2.75277,0.813319 -5.38042,0.813319 z" />
      <path id="letter-D" d="m 547.02396,41.602445 h 15.14025 q 5.31785,0 9.57214,1.626638 4.25428,1.626638 7.2573,4.629662 3.00303,2.940461 4.5671,7.069619 1.62664,4.129158 1.62664,9.071635 0,5.00504 -1.62664,9.134198 -1.56407,4.129158 -4.5671,7.069619 -3.00302,2.940461 -7.2573,4.567098 -4.25429,1.626638 -9.57214,1.626638 h -15.14025 z m 14.76487,36.787044 q 3.69122,0 6.50655,-1.001008 2.81534,-1.063571 4.69223,-2.940461 1.87689,-1.87689 2.81533,-4.504536 0.93845,-2.690209 0.93845,-5.943485 0,-3.253276 -0.93845,-5.880922 -0.93844,-2.690209 -2.81533,-4.567099 -1.87689,-1.87689 -4.69223,-2.877898 -2.81533,-1.063571 -6.50655,-1.063571 h -6.31886 v 28.77898 z" />
   </g>
</svg>