<svg version="1.1" width="128" height="128" xmlns="http://www.w3.org/2000/svg">
   <circle fill="#b5010f" id="path850" cx="64" cy="64" r="64" />
   <g>
      <path id="discord--body" fill="#ffffff" d="m 54.287654,40.641227 c -4.418012,0.760916 -8.658417,2.050704 -12.650464,3.780812 l 0.04739,0.176259 c 1.373915,5.127515 -1.422837,11.919596 -7.534822,14.36152 l -0.774099,0.309226 -0.0938,-0.105137 c -2.856193,8.181261 -3.562044,16.257695 -2.813962,24.269144 0.0053,0.06165 0.03969,0.120219 0.08761,0.157705 5.777942,4.24319 11.375321,6.81897 16.868317,8.526411 0.08791,0.02681 0.181128,-0.0048 0.237075,-0.0773 1.299371,-1.774422 2.457859,-3.645939 3.450968,-5.613496 0.05861,-0.115218 0.0021,-0.251287 -0.117503,-0.296858 -1.837213,-0.696926 -3.58643,-1.547011 -5.269225,-2.511952 -0.133109,-0.07773 -0.144086,-0.267556 -0.02164,-0.358703 0.354123,-0.265354 0.708073,-0.541713 1.046216,-0.820482 0.06118,-0.0509 0.146592,-0.06205 0.218519,-0.02989 11.055248,5.047441 23.024168,5.047441 33.948973,0 0.07193,-0.03482 0.156741,-0.0241 0.220582,0.0268 0.338233,0.278769 0.692526,0.558219 1.049309,0.823574 0.122453,0.09115 0.114532,0.28097 -0.01858,0.358702 -1.682795,0.983685 -3.432439,1.814599 -5.272313,2.508861 -0.119788,0.0456 -0.173027,0.184732 -0.114415,0.29995 1.014414,1.964797 2.17248,3.835886 3.447876,5.610404 0.05328,0.07507 0.149162,0.107227 0.237074,0.0804 5.519632,-1.707441 11.117169,-4.283221 16.895116,-8.526411 0.05061,-0.03749 0.08229,-0.09399 0.08762,-0.155644 0.841656,-8.707128 -0.177798,-16.725988 -2.752121,-24.16813 l -0.07318,0.08246 -0.774094,-0.309227 C 87.738138,56.598293 84.94138,49.806211 86.315296,44.678697 l 0.05669,-0.213366 c -4.01807,-1.749236 -8.291126,-3.054571 -12.747352,-3.824104 -0.08791,-0.01609 -0.17632,0.02369 -0.221612,0.104106 -0.593784,1.056099 -1.251504,2.43402 -1.712085,3.516939 -5.192159,-0.77732 -10.357096,-0.777321 -15.442782,0 -0.460681,-1.10699 -1.142435,-2.46084 -1.73889,-3.516939 -0.04528,-0.07773 -0.133699,-0.117512 -0.221611,-0.104106 z m -14.737745,5.745432 c -2.075697,3.263981 -3.762835,6.508395 -5.100178,9.735488 3.614016,-2.101476 5.416694,-6.378813 5.100178,-9.735488 z m 48.896993,0.110291 c -0.302742,3.349904 1.497598,7.604779 5.096051,9.701473 -1.382448,-3.351404 -3.093531,-6.580497 -5.096051,-9.701473 z M 52.762138,62.141761 c 3.408121,0 6.124424,3.082242 6.071148,6.808141 0,3.75273 -2.689668,6.808142 -6.071148,6.808142 -3.328389,0 -6.071153,-3.055412 -6.071153,-6.808142 0,-3.75273 2.689578,-6.808141 6.071153,-6.808141 z m 22.446766,0 c 3.408216,0 6.123305,3.082242 6.070119,6.808141 0,3.75273 -2.661903,6.808142 -6.070119,6.808142 -3.328294,0 -6.071153,-3.055412 -6.071153,-6.808142 0,-3.75273 2.689577,-6.808141 6.071153,-6.808141 z" />
      <path id="horn--left" fill="#ffffff" d="m 40.538094,44.905869 c -8.239597,-0.576825 -13.967804,-4.713705 -19.567589,-9.03263 2.874621,7.637738 6.626475,15.107832 12.738438,21.984183 5.502158,-2.198279 8.022424,-8.498206 6.829151,-12.951553 z" />
      <path id="horn--right" fill="#ffffff" d="m 87.461916,44.986264 c 8.239596,-0.576826 13.967804,-4.713706 19.567594,-9.03263 -2.87463,7.637738 -6.62648,15.107832 -12.738444,21.984183 -5.502157,-2.198279 -8.022423,-8.498206 -6.82915,-12.951553 z" />
   </g>
</svg>